<mxfile host="app.diagrams.net" modified="2024-04-12T18:45:42.584Z" agent="Mozilla/5.0 (Windows NT 10.0; Win64; x64) AppleWebKit/537.36 (KHTML, like Gecko) Chrome/123.0.0.0 Safari/537.36 Edg/123.0.0.0" etag="NLO7ME3VOnFdwBp5iNcZ" version="24.2.3" type="github">
  <diagram name="Page-1" id="W6RYwW32AMvsFlDpC_uA">
    <mxGraphModel dx="2063" dy="1765" grid="1" gridSize="10" guides="1" tooltips="1" connect="1" arrows="1" fold="1" page="1" pageScale="1" pageWidth="850" pageHeight="1100" math="0" shadow="0">
      <root>
        <mxCell id="0" />
        <mxCell id="1" parent="0" />
        <mxCell id="-CI_t1cur6r16L08w_A9-1" value="&lt;font style=&quot;font-size: 14px;&quot;&gt;Cyber security risks involved in local, cloud based big data storage systems&lt;/font&gt;" style="rounded=1;whiteSpace=wrap;html=1;" vertex="1" parent="1">
          <mxGeometry x="410" y="-1000" width="500" height="60" as="geometry" />
        </mxCell>
        <mxCell id="-CI_t1cur6r16L08w_A9-2" value="" style="endArrow=none;html=1;rounded=0;" edge="1" parent="1" target="-CI_t1cur6r16L08w_A9-1">
          <mxGeometry width="50" height="50" relative="1" as="geometry">
            <mxPoint x="660" y="-840" as="sourcePoint" />
            <mxPoint x="430" y="-890" as="targetPoint" />
          </mxGeometry>
        </mxCell>
        <mxCell id="-CI_t1cur6r16L08w_A9-3" value="" style="endArrow=none;html=1;rounded=0;" edge="1" parent="1">
          <mxGeometry width="50" height="50" relative="1" as="geometry">
            <mxPoint x="80" y="-840" as="sourcePoint" />
            <mxPoint x="1130" y="-840" as="targetPoint" />
          </mxGeometry>
        </mxCell>
        <mxCell id="-CI_t1cur6r16L08w_A9-4" value="&lt;font style=&quot;font-size: 13px;&quot;&gt;Risk assessment, resource evaluation&lt;/font&gt;" style="rounded=1;whiteSpace=wrap;html=1;fillColor=#dae8fc;strokeColor=#6c8ebf;" vertex="1" parent="1">
          <mxGeometry x="-40" y="-970" width="140" height="90" as="geometry" />
        </mxCell>
        <mxCell id="-CI_t1cur6r16L08w_A9-5" value="&lt;font style=&quot;font-size: 13px;&quot;&gt;Identify risks for data storage systems&lt;/font&gt;" style="rounded=1;whiteSpace=wrap;html=1;fillColor=#dae8fc;strokeColor=#6c8ebf;" vertex="1" parent="1">
          <mxGeometry x="-220" y="-1000" width="130" height="70" as="geometry" />
        </mxCell>
        <mxCell id="-CI_t1cur6r16L08w_A9-7" value="&lt;font style=&quot;font-size: 13px;&quot;&gt;Determine resources for implementing security measures&lt;/font&gt;" style="rounded=1;whiteSpace=wrap;html=1;fillColor=#dae8fc;strokeColor=#6c8ebf;" vertex="1" parent="1">
          <mxGeometry x="-220" y="-875" width="130" height="70" as="geometry" />
        </mxCell>
        <mxCell id="-CI_t1cur6r16L08w_A9-8" value="&lt;font style=&quot;font-size: 13px;&quot;&gt;Assess potential security vulnerabilities&lt;/font&gt;" style="rounded=1;whiteSpace=wrap;html=1;fillColor=#dae8fc;strokeColor=#6c8ebf;" vertex="1" parent="1">
          <mxGeometry x="-200" y="-765" width="120" height="60" as="geometry" />
        </mxCell>
        <mxCell id="-CI_t1cur6r16L08w_A9-9" value="" style="endArrow=classic;html=1;rounded=0;" edge="1" parent="1" source="-CI_t1cur6r16L08w_A9-4" target="-CI_t1cur6r16L08w_A9-5">
          <mxGeometry width="50" height="50" relative="1" as="geometry">
            <mxPoint x="270" y="-730" as="sourcePoint" />
            <mxPoint x="320" y="-780" as="targetPoint" />
          </mxGeometry>
        </mxCell>
        <mxCell id="-CI_t1cur6r16L08w_A9-10" value="" style="endArrow=classic;html=1;rounded=0;" edge="1" parent="1" source="-CI_t1cur6r16L08w_A9-4" target="-CI_t1cur6r16L08w_A9-7">
          <mxGeometry width="50" height="50" relative="1" as="geometry">
            <mxPoint x="270" y="-730" as="sourcePoint" />
            <mxPoint x="320" y="-780" as="targetPoint" />
          </mxGeometry>
        </mxCell>
        <mxCell id="-CI_t1cur6r16L08w_A9-11" value="" style="endArrow=classic;html=1;rounded=0;" edge="1" parent="1" source="-CI_t1cur6r16L08w_A9-4" target="-CI_t1cur6r16L08w_A9-8">
          <mxGeometry width="50" height="50" relative="1" as="geometry">
            <mxPoint x="270" y="-730" as="sourcePoint" />
            <mxPoint x="320" y="-780" as="targetPoint" />
          </mxGeometry>
        </mxCell>
        <mxCell id="-CI_t1cur6r16L08w_A9-12" value="&lt;font style=&quot;font-size: 13px;&quot;&gt;Policy, procedure development&lt;/font&gt;" style="rounded=1;whiteSpace=wrap;html=1;fillColor=#d5e8d4;strokeColor=#82b366;" vertex="1" parent="1">
          <mxGeometry x="90" y="-805" width="130" height="90" as="geometry" />
        </mxCell>
        <mxCell id="-CI_t1cur6r16L08w_A9-13" value="" style="endArrow=none;html=1;rounded=0;" edge="1" parent="1" target="-CI_t1cur6r16L08w_A9-12">
          <mxGeometry width="50" height="50" relative="1" as="geometry">
            <mxPoint x="200" y="-840" as="sourcePoint" />
            <mxPoint x="470" y="-780" as="targetPoint" />
          </mxGeometry>
        </mxCell>
        <mxCell id="-CI_t1cur6r16L08w_A9-14" value="&lt;font style=&quot;font-size: 13px;&quot;&gt;Develop security policies for big data&lt;/font&gt;" style="whiteSpace=wrap;html=1;rounded=1;fillColor=#d5e8d4;strokeColor=#82b366;" vertex="1" parent="1">
          <mxGeometry x="-60" y="-790" width="120" height="70" as="geometry" />
        </mxCell>
        <mxCell id="-CI_t1cur6r16L08w_A9-16" value="&lt;font style=&quot;font-size: 13px;&quot;&gt;Establish access management, control procedures&lt;/font&gt;" style="rounded=1;whiteSpace=wrap;html=1;fillColor=#d5e8d4;strokeColor=#82b366;" vertex="1" parent="1">
          <mxGeometry x="-80" y="-660" width="130" height="70" as="geometry" />
        </mxCell>
        <mxCell id="-CI_t1cur6r16L08w_A9-17" value="&lt;font style=&quot;font-size: 13px;&quot;&gt;Identify, apply security measures to protect against threats&lt;/font&gt;" style="rounded=1;whiteSpace=wrap;html=1;fillColor=#d5e8d4;strokeColor=#82b366;" vertex="1" parent="1">
          <mxGeometry x="50" y="-580" width="140" height="70" as="geometry" />
        </mxCell>
        <mxCell id="-CI_t1cur6r16L08w_A9-18" value="" style="endArrow=classic;html=1;rounded=0;" edge="1" parent="1" source="-CI_t1cur6r16L08w_A9-12" target="-CI_t1cur6r16L08w_A9-16">
          <mxGeometry width="50" height="50" relative="1" as="geometry">
            <mxPoint x="420" y="-730" as="sourcePoint" />
            <mxPoint x="470" y="-780" as="targetPoint" />
          </mxGeometry>
        </mxCell>
        <mxCell id="-CI_t1cur6r16L08w_A9-19" value="" style="endArrow=classic;html=1;rounded=0;" edge="1" parent="1" source="-CI_t1cur6r16L08w_A9-12" target="-CI_t1cur6r16L08w_A9-17">
          <mxGeometry width="50" height="50" relative="1" as="geometry">
            <mxPoint x="420" y="-730" as="sourcePoint" />
            <mxPoint x="470" y="-780" as="targetPoint" />
          </mxGeometry>
        </mxCell>
        <mxCell id="-CI_t1cur6r16L08w_A9-20" value="&lt;font style=&quot;font-size: 13px;&quot;&gt;System, network security&lt;/font&gt;" style="rounded=1;whiteSpace=wrap;html=1;fillColor=#f8cecc;strokeColor=#b85450;" vertex="1" parent="1">
          <mxGeometry x="275" y="-800" width="130" height="80" as="geometry" />
        </mxCell>
        <mxCell id="-CI_t1cur6r16L08w_A9-21" value="" style="endArrow=none;html=1;rounded=0;" edge="1" parent="1" target="-CI_t1cur6r16L08w_A9-20">
          <mxGeometry width="50" height="50" relative="1" as="geometry">
            <mxPoint x="400" y="-840" as="sourcePoint" />
            <mxPoint x="470" y="-780" as="targetPoint" />
          </mxGeometry>
        </mxCell>
        <mxCell id="-CI_t1cur6r16L08w_A9-22" value="&lt;font style=&quot;font-size: 13px;&quot;&gt;Deploy firewalls, configure network security&lt;/font&gt;" style="rounded=1;whiteSpace=wrap;html=1;fillColor=#f8cecc;strokeColor=#b85450;" vertex="1" parent="1">
          <mxGeometry x="180" y="-697.5" width="130" height="70" as="geometry" />
        </mxCell>
        <mxCell id="-CI_t1cur6r16L08w_A9-23" value="" style="endArrow=classic;html=1;rounded=0;" edge="1" parent="1" source="-CI_t1cur6r16L08w_A9-20" target="-CI_t1cur6r16L08w_A9-22">
          <mxGeometry width="50" height="50" relative="1" as="geometry">
            <mxPoint x="420" y="-730" as="sourcePoint" />
            <mxPoint x="470" y="-780" as="targetPoint" />
          </mxGeometry>
        </mxCell>
        <mxCell id="-CI_t1cur6r16L08w_A9-24" value="&lt;span style=&quot;font-size: 13px;&quot;&gt;Implement security solutions for cloud-based system protection&lt;/span&gt;" style="rounded=1;whiteSpace=wrap;html=1;fillColor=#f8cecc;strokeColor=#b85450;" vertex="1" parent="1">
          <mxGeometry x="260" y="-600" width="140" height="80" as="geometry" />
        </mxCell>
        <mxCell id="-CI_t1cur6r16L08w_A9-25" value="" style="endArrow=classic;html=1;rounded=0;" edge="1" parent="1" source="-CI_t1cur6r16L08w_A9-20" target="-CI_t1cur6r16L08w_A9-24">
          <mxGeometry width="50" height="50" relative="1" as="geometry">
            <mxPoint x="420" y="-730" as="sourcePoint" />
            <mxPoint x="470" y="-780" as="targetPoint" />
          </mxGeometry>
        </mxCell>
        <mxCell id="-CI_t1cur6r16L08w_A9-26" value="&lt;font style=&quot;font-size: 13px;&quot;&gt;Set up intrusion detection system, malware prevention&lt;/font&gt;" style="rounded=1;whiteSpace=wrap;html=1;fillColor=#f8cecc;strokeColor=#b85450;" vertex="1" parent="1">
          <mxGeometry x="370" y="-690" width="130" height="70" as="geometry" />
        </mxCell>
        <mxCell id="-CI_t1cur6r16L08w_A9-29" value="" style="endArrow=classic;html=1;rounded=0;" edge="1" parent="1" source="-CI_t1cur6r16L08w_A9-20" target="-CI_t1cur6r16L08w_A9-26">
          <mxGeometry width="50" height="50" relative="1" as="geometry">
            <mxPoint x="420" y="-730" as="sourcePoint" />
            <mxPoint x="470" y="-780" as="targetPoint" />
          </mxGeometry>
        </mxCell>
        <mxCell id="-CI_t1cur6r16L08w_A9-30" value="&lt;font style=&quot;font-size: 13px;&quot;&gt;Response, monitoring&lt;/font&gt;" style="rounded=1;whiteSpace=wrap;html=1;fillColor=#e1d5e7;strokeColor=#9673a6;" vertex="1" parent="1">
          <mxGeometry x="480" y="-790" width="140" height="70" as="geometry" />
        </mxCell>
        <mxCell id="-CI_t1cur6r16L08w_A9-31" value="" style="endArrow=none;html=1;rounded=0;" edge="1" parent="1" target="-CI_t1cur6r16L08w_A9-30">
          <mxGeometry width="50" height="50" relative="1" as="geometry">
            <mxPoint x="600" y="-840" as="sourcePoint" />
            <mxPoint x="480" y="-820" as="targetPoint" />
          </mxGeometry>
        </mxCell>
        <mxCell id="-CI_t1cur6r16L08w_A9-32" value="" style="endArrow=classic;html=1;rounded=0;" edge="1" parent="1" source="-CI_t1cur6r16L08w_A9-30" target="-CI_t1cur6r16L08w_A9-33">
          <mxGeometry width="50" height="50" relative="1" as="geometry">
            <mxPoint x="430" y="-780" as="sourcePoint" />
            <mxPoint x="480" y="-830" as="targetPoint" />
          </mxGeometry>
        </mxCell>
        <mxCell id="-CI_t1cur6r16L08w_A9-33" value="&lt;font style=&quot;font-size: 13px;&quot;&gt;Utilize strong encryption solutions&lt;/font&gt;" style="rounded=1;whiteSpace=wrap;html=1;fillColor=#e1d5e7;strokeColor=#9673a6;" vertex="1" parent="1">
          <mxGeometry x="460" y="-600" width="125" height="70" as="geometry" />
        </mxCell>
        <mxCell id="-CI_t1cur6r16L08w_A9-34" value="" style="endArrow=classic;html=1;rounded=0;" edge="1" parent="1" source="-CI_t1cur6r16L08w_A9-30" target="-CI_t1cur6r16L08w_A9-36">
          <mxGeometry width="50" height="50" relative="1" as="geometry">
            <mxPoint x="270" y="-780" as="sourcePoint" />
            <mxPoint x="320" y="-830" as="targetPoint" />
          </mxGeometry>
        </mxCell>
        <mxCell id="-CI_t1cur6r16L08w_A9-36" value="Apply encryption to data during storage, encryption" style="rounded=1;whiteSpace=wrap;html=1;fillColor=#e1d5e7;strokeColor=#9673a6;" vertex="1" parent="1">
          <mxGeometry x="620" y="-680" width="130" height="70" as="geometry" />
        </mxCell>
        <mxCell id="-CI_t1cur6r16L08w_A9-37" value="" style="endArrow=classic;html=1;rounded=0;" edge="1" parent="1" source="-CI_t1cur6r16L08w_A9-30" target="-CI_t1cur6r16L08w_A9-38">
          <mxGeometry width="50" height="50" relative="1" as="geometry">
            <mxPoint x="270" y="-780" as="sourcePoint" />
            <mxPoint x="320" y="-830" as="targetPoint" />
          </mxGeometry>
        </mxCell>
        <mxCell id="-CI_t1cur6r16L08w_A9-38" value="&lt;font style=&quot;font-size: 13px;&quot;&gt;identify, implement encryption measures to counter evolving threats&lt;/font&gt;" style="rounded=1;whiteSpace=wrap;html=1;fillColor=#e1d5e7;strokeColor=#9673a6;" vertex="1" parent="1">
          <mxGeometry x="690" y="-795" width="140" height="80" as="geometry" />
        </mxCell>
        <mxCell id="-CI_t1cur6r16L08w_A9-39" value="" style="endArrow=none;html=1;rounded=0;" edge="1" parent="1" target="-CI_t1cur6r16L08w_A9-4">
          <mxGeometry width="50" height="50" relative="1" as="geometry">
            <mxPoint x="80" y="-840" as="sourcePoint" />
            <mxPoint x="310" y="-840" as="targetPoint" />
          </mxGeometry>
        </mxCell>
        <mxCell id="-CI_t1cur6r16L08w_A9-40" value="" style="endArrow=none;html=1;rounded=0;" edge="1" parent="1" target="-CI_t1cur6r16L08w_A9-41">
          <mxGeometry width="50" height="50" relative="1" as="geometry">
            <mxPoint x="920" y="-840" as="sourcePoint" />
            <mxPoint x="930" y="-840" as="targetPoint" />
          </mxGeometry>
        </mxCell>
        <mxCell id="-CI_t1cur6r16L08w_A9-41" value="&lt;font style=&quot;font-size: 13px;&quot;&gt;Employees training&lt;/font&gt;" style="rounded=1;whiteSpace=wrap;html=1;fillColor=#b1ddf0;strokeColor=#10739e;" vertex="1" parent="1">
          <mxGeometry x="860" y="-772.5" width="130" height="75" as="geometry" />
        </mxCell>
        <mxCell id="-CI_t1cur6r16L08w_A9-46" value="" style="endArrow=classic;html=1;rounded=0;" edge="1" parent="1" source="-CI_t1cur6r16L08w_A9-41" target="-CI_t1cur6r16L08w_A9-47">
          <mxGeometry width="50" height="50" relative="1" as="geometry">
            <mxPoint x="880" y="-790" as="sourcePoint" />
            <mxPoint x="930" y="-840" as="targetPoint" />
          </mxGeometry>
        </mxCell>
        <mxCell id="-CI_t1cur6r16L08w_A9-47" value="&lt;font style=&quot;font-size: 13px;&quot;&gt;Ensures flexibilities in adjusting respond plans based on risk analysis, learning from previous incidents&lt;/font&gt;" style="rounded=1;whiteSpace=wrap;html=1;fillColor=#b1ddf0;strokeColor=#10739e;" vertex="1" parent="1">
          <mxGeometry x="620" y="-575" width="170" height="90" as="geometry" />
        </mxCell>
        <mxCell id="-CI_t1cur6r16L08w_A9-48" value="" style="endArrow=classic;html=1;rounded=0;" edge="1" parent="1" source="-CI_t1cur6r16L08w_A9-12" target="-CI_t1cur6r16L08w_A9-14">
          <mxGeometry width="50" height="50" relative="1" as="geometry">
            <mxPoint x="90" y="-790" as="sourcePoint" />
            <mxPoint x="140" y="-840" as="targetPoint" />
          </mxGeometry>
        </mxCell>
        <mxCell id="-CI_t1cur6r16L08w_A9-49" value="" style="endArrow=classic;html=1;rounded=0;" edge="1" parent="1" source="-CI_t1cur6r16L08w_A9-41" target="-CI_t1cur6r16L08w_A9-50">
          <mxGeometry width="50" height="50" relative="1" as="geometry">
            <mxPoint x="800" y="-600" as="sourcePoint" />
            <mxPoint x="850" y="-650" as="targetPoint" />
          </mxGeometry>
        </mxCell>
        <mxCell id="-CI_t1cur6r16L08w_A9-50" value="&lt;font style=&quot;font-size: 13px;&quot;&gt;Conduct monitoring for detecting unusual activities&lt;/font&gt;" style="rounded=1;whiteSpace=wrap;html=1;fillColor=#b1ddf0;strokeColor=#10739e;" vertex="1" parent="1">
          <mxGeometry x="860" y="-565" width="150" height="80" as="geometry" />
        </mxCell>
        <mxCell id="-CI_t1cur6r16L08w_A9-51" value="" style="endArrow=classic;html=1;rounded=0;" edge="1" parent="1" source="-CI_t1cur6r16L08w_A9-41" target="-CI_t1cur6r16L08w_A9-52">
          <mxGeometry width="50" height="50" relative="1" as="geometry">
            <mxPoint x="800" y="-610" as="sourcePoint" />
            <mxPoint x="850" y="-660" as="targetPoint" />
          </mxGeometry>
        </mxCell>
        <mxCell id="-CI_t1cur6r16L08w_A9-52" value="&lt;font style=&quot;font-size: 13px;&quot;&gt;Develop response plans for emergencies, incidents&lt;/font&gt;" style="rounded=1;whiteSpace=wrap;html=1;fillColor=#b1ddf0;strokeColor=#10739e;" vertex="1" parent="1">
          <mxGeometry x="690" y="-460" width="150" height="75" as="geometry" />
        </mxCell>
        <mxCell id="-CI_t1cur6r16L08w_A9-53" value="&lt;font style=&quot;font-size: 13px;&quot;&gt;Updating, testing&lt;/font&gt;" style="rounded=1;whiteSpace=wrap;html=1;fillColor=#fad7ac;strokeColor=#b46504;" vertex="1" parent="1">
          <mxGeometry x="1070" y="-772.5" width="140" height="75" as="geometry" />
        </mxCell>
        <mxCell id="-CI_t1cur6r16L08w_A9-54" value="" style="endArrow=none;html=1;rounded=0;" edge="1" parent="1" source="-CI_t1cur6r16L08w_A9-53">
          <mxGeometry width="50" height="50" relative="1" as="geometry">
            <mxPoint x="910" y="-620" as="sourcePoint" />
            <mxPoint x="1030" y="-840" as="targetPoint" />
          </mxGeometry>
        </mxCell>
        <mxCell id="-CI_t1cur6r16L08w_A9-55" value="" style="endArrow=classic;html=1;rounded=0;" edge="1" parent="1" source="-CI_t1cur6r16L08w_A9-53" target="-CI_t1cur6r16L08w_A9-56">
          <mxGeometry width="50" height="50" relative="1" as="geometry">
            <mxPoint x="1030" y="-620" as="sourcePoint" />
            <mxPoint x="1080" y="-670" as="targetPoint" />
          </mxGeometry>
        </mxCell>
        <mxCell id="-CI_t1cur6r16L08w_A9-56" value="&lt;font style=&quot;font-size: 13px;&quot;&gt;Provide security training&lt;/font&gt;" style="rounded=1;whiteSpace=wrap;html=1;fillColor=#fad7ac;strokeColor=#b46504;" vertex="1" parent="1">
          <mxGeometry x="980" y="-660" width="120" height="60" as="geometry" />
        </mxCell>
        <mxCell id="-CI_t1cur6r16L08w_A9-57" value="" style="endArrow=classic;html=1;rounded=0;" edge="1" parent="1" source="-CI_t1cur6r16L08w_A9-53" target="-CI_t1cur6r16L08w_A9-58">
          <mxGeometry width="50" height="50" relative="1" as="geometry">
            <mxPoint x="1030" y="-630" as="sourcePoint" />
            <mxPoint x="1080" y="-680" as="targetPoint" />
          </mxGeometry>
        </mxCell>
        <mxCell id="-CI_t1cur6r16L08w_A9-58" value="&lt;font style=&quot;font-size: 13px;&quot;&gt;Enhance training on recognizing new threats, how to counter them&lt;/font&gt;" style="rounded=1;whiteSpace=wrap;html=1;fillColor=#fad7ac;strokeColor=#b46504;" vertex="1" parent="1">
          <mxGeometry x="1060" y="-550" width="160" height="75" as="geometry" />
        </mxCell>
        <mxCell id="-CI_t1cur6r16L08w_A9-59" value="" style="endArrow=classic;html=1;rounded=0;" edge="1" parent="1" source="-CI_t1cur6r16L08w_A9-53" target="-CI_t1cur6r16L08w_A9-60">
          <mxGeometry width="50" height="50" relative="1" as="geometry">
            <mxPoint x="1030" y="-640" as="sourcePoint" />
            <mxPoint x="1080" y="-690" as="targetPoint" />
          </mxGeometry>
        </mxCell>
        <mxCell id="-CI_t1cur6r16L08w_A9-60" value="&lt;font style=&quot;font-size: 13px;&quot;&gt;Establish education programs on information security&lt;/font&gt;" style="rounded=1;whiteSpace=wrap;html=1;fillColor=#fad7ac;strokeColor=#b46504;" vertex="1" parent="1">
          <mxGeometry x="1180" y="-627.5" width="160" height="65" as="geometry" />
        </mxCell>
        <mxCell id="-CI_t1cur6r16L08w_A9-61" value="" style="endArrow=none;html=1;rounded=0;" edge="1" parent="1" target="-CI_t1cur6r16L08w_A9-62">
          <mxGeometry width="50" height="50" relative="1" as="geometry">
            <mxPoint x="1130" y="-840" as="sourcePoint" />
            <mxPoint x="840" y="-800" as="targetPoint" />
          </mxGeometry>
        </mxCell>
        <mxCell id="-CI_t1cur6r16L08w_A9-62" value="&lt;font style=&quot;font-size: 13px;&quot;&gt;Data encryption&lt;/font&gt;" style="rounded=1;whiteSpace=wrap;html=1;fillColor=#bac8d3;strokeColor=#23445d;" vertex="1" parent="1">
          <mxGeometry x="1170" y="-930" width="120" height="60" as="geometry" />
        </mxCell>
        <mxCell id="-CI_t1cur6r16L08w_A9-63" value="" style="endArrow=classic;html=1;rounded=0;" edge="1" parent="1" source="-CI_t1cur6r16L08w_A9-62" target="-CI_t1cur6r16L08w_A9-64">
          <mxGeometry width="50" height="50" relative="1" as="geometry">
            <mxPoint x="1240" y="-750" as="sourcePoint" />
            <mxPoint x="1290" y="-800" as="targetPoint" />
          </mxGeometry>
        </mxCell>
        <mxCell id="-CI_t1cur6r16L08w_A9-64" value="&lt;font style=&quot;font-size: 13px;&quot;&gt;Update security measures&lt;/font&gt;" style="rounded=1;whiteSpace=wrap;html=1;fillColor=#bac8d3;strokeColor=#23445d;" vertex="1" parent="1">
          <mxGeometry x="1230" y="-805" width="120" height="60" as="geometry" />
        </mxCell>
        <mxCell id="-CI_t1cur6r16L08w_A9-65" value="" style="endArrow=classic;html=1;rounded=0;" edge="1" parent="1" source="-CI_t1cur6r16L08w_A9-62" target="-CI_t1cur6r16L08w_A9-66">
          <mxGeometry width="50" height="50" relative="1" as="geometry">
            <mxPoint x="1240" y="-760" as="sourcePoint" />
            <mxPoint x="1290" y="-810" as="targetPoint" />
          </mxGeometry>
        </mxCell>
        <mxCell id="-CI_t1cur6r16L08w_A9-66" value="&lt;font style=&quot;font-size: 13px;&quot;&gt;Promote an information security culture, encourage commitment&amp;nbsp;&lt;/font&gt;" style="rounded=1;whiteSpace=wrap;html=1;fillColor=#bac8d3;strokeColor=#23445d;" vertex="1" parent="1">
          <mxGeometry x="1370" y="-890" width="160" height="80" as="geometry" />
        </mxCell>
        <mxCell id="-CI_t1cur6r16L08w_A9-67" value="" style="endArrow=classic;html=1;rounded=0;" edge="1" parent="1" source="-CI_t1cur6r16L08w_A9-62" target="-CI_t1cur6r16L08w_A9-68">
          <mxGeometry width="50" height="50" relative="1" as="geometry">
            <mxPoint x="1240" y="-770" as="sourcePoint" />
            <mxPoint x="1290" y="-820" as="targetPoint" />
          </mxGeometry>
        </mxCell>
        <mxCell id="-CI_t1cur6r16L08w_A9-68" value="&lt;font style=&quot;font-size: 13px;&quot;&gt;Perform security checks&lt;/font&gt;" style="rounded=1;whiteSpace=wrap;html=1;fillColor=#bac8d3;strokeColor=#23445d;" vertex="1" parent="1">
          <mxGeometry x="1370" y="-995" width="120" height="60" as="geometry" />
        </mxCell>
      </root>
    </mxGraphModel>
  </diagram>
</mxfile>
